# xmcd
#
# Track frame offsets:
#	150
#	15627
#	30988
#	52190
#	70417
#	84845
#	100321
#	115991
#	129169
#	142797
#
# Disc length: 2140 seconds
#
# Revision: 1
# Processed by: cddbd v1.5.2PL0 Copyright (c) Steve Scherf et al.
# Submitted via: audiograbber 1.83.01
#
DISCID=79085a0a
DTITLE=Bekka Bramlett - I Got News For You
DYEAR=2009
DGENRE=Soul
TTITLE0=What's On My Mind
TTITLE1=I Got News For You
TTITLE2=I Wanna Be That Woman
TTITLE3=All These Things
TTITLE4=Love The Man
TTITLE5=You'll Never Lose My Love
TTITLE6=What Do They Know
TTITLE7=The Truck Stops Here
TTITLE8=Misty Blue
TTITLE9=Sweet Love
EXTD=
EXTT0=
EXTT1=
EXTT2=
EXTT3=
EXTT4=
EXTT5=
EXTT6=
EXTT7=
EXTT8=
EXTT9=
PLAYORDER=
